<?xml version="1.0" encoding="UTF-8"?>
<svg width="157px" height="157px" viewBox="0 0 157 157" version="1.1" xmlns="http://www.w3.org/2000/svg" xmlns:xlink="http://www.w3.org/1999/xlink">
    <!-- Generator: Sketch 54.1 (76490) - https://sketchapp.com -->
    <title>Icon logo / white</title>
    <desc>Created with Sketch.</desc>
    <g id="IAB-Ad-Sizes" stroke="none" stroke-width="1" fill="none" fill-rule="evenodd">
        <path d="M136.517128,93.8170732 C133.738123,95.5479024 130.465506,95.7623415 127.978006,94.3799756 C124.818103,92.6223415 123.080739,88.505878 123.080739,82.781122 L123.080739,65.6528049 C123.080739,57.3815854 119.761481,51.496 114.211246,49.9068537 C104.805385,47.2072195 97.7315561,58.5456829 95.0730401,62.8038293 L78.4845223,89.3023659 L78.4845223,56.9144146 C78.2979598,49.4626585 75.8415532,45.0053902 71.1774901,43.6613171 C68.091435,42.7729268 63.4740125,43.1290488 58.9887384,49.8915366 L21.8239287,108.686122 C16.8484477,99.380197 14.2547311,89.0180343 14.2681465,78.5 C14.2681465,43.0830976 43.0765097,14.2716829 78.4845223,14.2716829 C113.892535,14.2716829 142.697011,43.0830976 142.697011,78.5 C142.697011,78.5612683 142.712558,78.614878 142.716445,78.6723171 C142.716445,78.7335854 142.704785,78.7871951 142.708672,78.8484634 C143.042929,85.7066829 140.788632,91.1633902 136.517128,93.8209024 L136.517128,93.8170732 Z M156.965158,78.5038293 L156.965158,78.5 L156.965158,78.3238537 L156.961271,78.1477073 C156.763048,35.0148293 121.638766,0 78.4806356,0 C35.2097899,0 0,35.2139512 0,78.5 C0,121.78222 35.2097899,157 78.4845223,157 C98.3417711,157 117.293414,149.563561 131.841404,136.06539 C134.733124,133.384902 134.904139,128.870195 132.222303,125.982927 C130.947177,124.597583 129.159684,123.776291 127.262899,123.70425 C125.366113,123.632209 123.519747,124.315485 122.140153,125.6 C110.348157,136.601396 94.7246206,142.731302 78.4845223,142.728317 C59.5251057,142.728317 42.4662948,134.460927 30.7011955,121.349512 L64.2163758,68.3294634 L64.2163758,92.7716829 C64.2163758,104.51222 68.8376851,108.307024 72.7127442,109.417512 C76.59169,110.528 82.5189369,109.769805 88.7415745,99.8137073 L107.176284,70.3704634 C107.767065,69.4208049 108.311206,68.6013415 108.808706,67.8929268 L108.808706,82.781122 C108.808706,93.7558049 113.27066,102.532488 121.047985,106.855732 C128.059627,110.753927 136.874706,110.401634 144.057363,105.936707 C152.763614,100.518293 157.454884,90.5353902 156.965158,78.5038293 Z" id="Icon-logo-/-black" fill="#ffffff" fill-rule="nonzero"></path>
    </g>
</svg>
