<svg xmlns="http://www.w3.org/2000/svg" width="46" height="46" viewBox="0 0 50 42"><defs><linearGradient id="nftbank-logo_svg__a" x1="50%" x2="50%" y1="0%" y2="100%"><stop offset="0%" stop-color="#9CA0FF"></stop><stop offset="100%" stop-color="#3B6EFF"></stop></linearGradient><linearGradient id="nftbank-logo_svg__b" x1="50%" x2="50%" y1="0%" y2="100%"><stop offset="0%" stop-color="#5E7DE4"></stop><stop offset="100%" stop-color="#3B43FF"></stop></linearGradient><linearGradient id="nftbank-logo_svg__c" x1="50%" x2="50%" y1="0%" y2="100%"><stop offset="0%" stop-color="#131CFF"></stop><stop offset="100%" stop-color="#3B43FF"></stop></linearGradient></defs><g fill="none" fill-rule="evenodd"><path fill="url(#nftbank-logo_svg__a)" d="m29.992.786 17.894 9.75a3.714 3.714 0 0 1 1.939 3.263V37.95a3.717 3.717 0 0 1-5.495 3.263l-17.894-9.75a3.714 3.714 0 0 1-1.939-3.263V4.05A3.717 3.717 0 0 1 29.992.787z"></path><path fill="url(#nftbank-logo_svg__b)" d="m10.123 3.456 13.678 7.854c.326.187.622.423.877.699l23.57 25.475a2.611 2.611 0 0 1-3.15 4.075L25.464 31.025a3.723 3.723 0 0 1-1.122-.925L6.285 7.978a3.016 3.016 0 0 1 3.838-4.522z"></path><path fill="url(#nftbank-logo_svg__c)" d="m5.495.786 17.894 9.75a3.713 3.713 0 0 1 1.938 3.263V37.95a3.716 3.716 0 0 1-5.494 3.263l-17.894-9.75A3.709 3.709 0 0 1 0 28.202V4.05A3.717 3.717 0 0 1 5.495.786z"></path></g></svg>