<svg width="50" height="50" viewBox="0 0 50 50" fill="none" xmlns="http://www.w3.org/2000/svg">
  <path fill-rule="evenodd" clip-rule="evenodd"
    d="M38.125 27.965C38.125 35.4907 33.6784 39.9956 25.4121 39.9956C23.2076 40.0468 21.0156 39.6516 18.9678 38.8338C23.1214 37.0388 25.3066 33.2513 25.3066 27.9767V25.3074H12.5V10.625H14.3308C14.9727 11.8522 15.9188 12.8943 17.0784 13.6515C17.9802 12.3025 19.26 11.2497 20.7575 10.625H20.9099C21.5513 11.8493 22.4964 12.8885 23.6546 13.6428C24.5166 12.3528 25.7275 11.3344 27.1462 10.7063C28.6927 10.8322 30.2105 11.1967 31.6455 11.7868C27.4948 13.5847 25.3066 17.3722 25.3066 22.6469V25.3074H38.125V27.965ZM25 1.75795e-10C20.0555 1.75794e-10 15.222 1.46622 11.1108 4.21326C6.99953 6.96029 3.79521 10.8648 1.90302 15.4329C0.0108321 20.0011 -0.484251 25.0277 0.480379 29.8772C1.44501 34.7268 3.82603 39.1813 7.32234 42.6777C10.8187 46.174 15.2732 48.555 20.1228 49.5196C24.9723 50.4842 29.9989 49.9892 34.5671 48.097C39.1352 46.2048 43.0397 43.0005 45.7867 38.8892C48.5338 34.778 50 29.9445 50 25C50 21.7169 49.3534 18.466 48.097 15.4329C46.8407 12.3998 44.9992 9.64377 42.6777 7.3223C40.3562 5.00083 37.6003 3.15935 34.5671 1.90299C31.534 0.646623 28.2831 -1.23113e-05 25 1.75799e-10V1.75795e-10Z"
    fill="#0091FF" />
</svg>